G75*
%MOIN*%
%OFA0B0*%
%FSLAX25Y25*%
%IPPOS*%
%LPD*%
%AMOC8*
5,1,8,0,0,1.08239X$1,22.5*
%
%ADD10C,0.01000*%
D10*
X0025081Y0013365D02*
X0285250Y0013365D01*
X0285250Y0215365D01*
X0211250Y0215365D01*
X0211250Y0144365D01*
X0025293Y0144365D01*
X0025081Y0013365D01*
X0285250Y0013365D01*
X0285250Y0014364D02*
X0025082Y0014364D01*
X0025084Y0015362D02*
X0285250Y0015362D01*
X0285250Y0016361D02*
X0025086Y0016361D01*
X0025087Y0017359D02*
X0285250Y0017359D01*
X0285250Y0018358D02*
X0025089Y0018358D01*
X0025090Y0019356D02*
X0285250Y0019356D01*
X0285250Y0020355D02*
X0025092Y0020355D01*
X0025094Y0021353D02*
X0285250Y0021353D01*
X0285250Y0022352D02*
X0025095Y0022352D01*
X0025097Y0023350D02*
X0285250Y0023350D01*
X0285250Y0024349D02*
X0025099Y0024349D01*
X0025100Y0025347D02*
X0285250Y0025347D01*
X0285250Y0026346D02*
X0025102Y0026346D01*
X0025103Y0027344D02*
X0285250Y0027344D01*
X0285250Y0028343D02*
X0025105Y0028343D01*
X0025107Y0029341D02*
X0285250Y0029341D01*
X0285250Y0030340D02*
X0025108Y0030340D01*
X0025110Y0031338D02*
X0285250Y0031338D01*
X0285250Y0032337D02*
X0025112Y0032337D01*
X0025113Y0033336D02*
X0285250Y0033336D01*
X0285250Y0034334D02*
X0025115Y0034334D01*
X0025116Y0035333D02*
X0285250Y0035333D01*
X0285250Y0036331D02*
X0025118Y0036331D01*
X0025120Y0037330D02*
X0285250Y0037330D01*
X0285250Y0038328D02*
X0025121Y0038328D01*
X0025123Y0039327D02*
X0285250Y0039327D01*
X0285250Y0040325D02*
X0025124Y0040325D01*
X0025126Y0041324D02*
X0285250Y0041324D01*
X0285250Y0042322D02*
X0025128Y0042322D01*
X0025129Y0043321D02*
X0285250Y0043321D01*
X0285250Y0044319D02*
X0025131Y0044319D01*
X0025133Y0045318D02*
X0285250Y0045318D01*
X0285250Y0046316D02*
X0025134Y0046316D01*
X0025136Y0047315D02*
X0285250Y0047315D01*
X0285250Y0048313D02*
X0025137Y0048313D01*
X0025139Y0049312D02*
X0285250Y0049312D01*
X0285250Y0050310D02*
X0025141Y0050310D01*
X0025142Y0051309D02*
X0285250Y0051309D01*
X0285250Y0052307D02*
X0025144Y0052307D01*
X0025146Y0053306D02*
X0285250Y0053306D01*
X0285250Y0054304D02*
X0025147Y0054304D01*
X0025149Y0055303D02*
X0285250Y0055303D01*
X0285250Y0056301D02*
X0025150Y0056301D01*
X0025152Y0057300D02*
X0285250Y0057300D01*
X0285250Y0058298D02*
X0025154Y0058298D01*
X0025155Y0059297D02*
X0285250Y0059297D01*
X0285250Y0060295D02*
X0025157Y0060295D01*
X0025159Y0061294D02*
X0285250Y0061294D01*
X0285250Y0062292D02*
X0025160Y0062292D01*
X0025162Y0063291D02*
X0285250Y0063291D01*
X0285250Y0064289D02*
X0025163Y0064289D01*
X0025165Y0065288D02*
X0285250Y0065288D01*
X0285250Y0066286D02*
X0025167Y0066286D01*
X0025168Y0067285D02*
X0285250Y0067285D01*
X0285250Y0068283D02*
X0025170Y0068283D01*
X0025171Y0069282D02*
X0285250Y0069282D01*
X0285250Y0070280D02*
X0025173Y0070280D01*
X0025175Y0071279D02*
X0285250Y0071279D01*
X0285250Y0072277D02*
X0025176Y0072277D01*
X0025178Y0073276D02*
X0285250Y0073276D01*
X0285250Y0074274D02*
X0025180Y0074274D01*
X0025181Y0075273D02*
X0285250Y0075273D01*
X0285250Y0076272D02*
X0025183Y0076272D01*
X0025184Y0077270D02*
X0285250Y0077270D01*
X0285250Y0078269D02*
X0025186Y0078269D01*
X0025188Y0079267D02*
X0285250Y0079267D01*
X0285250Y0080266D02*
X0025189Y0080266D01*
X0025191Y0081264D02*
X0285250Y0081264D01*
X0285250Y0082263D02*
X0025193Y0082263D01*
X0025194Y0083261D02*
X0285250Y0083261D01*
X0285250Y0084260D02*
X0025196Y0084260D01*
X0025197Y0085258D02*
X0285250Y0085258D01*
X0285250Y0086257D02*
X0025199Y0086257D01*
X0025201Y0087255D02*
X0285250Y0087255D01*
X0285250Y0088254D02*
X0025202Y0088254D01*
X0025204Y0089252D02*
X0285250Y0089252D01*
X0285250Y0090251D02*
X0025205Y0090251D01*
X0025207Y0091249D02*
X0285250Y0091249D01*
X0285250Y0092248D02*
X0025209Y0092248D01*
X0025210Y0093246D02*
X0285250Y0093246D01*
X0285250Y0094245D02*
X0025212Y0094245D01*
X0025214Y0095243D02*
X0285250Y0095243D01*
X0285250Y0096242D02*
X0025215Y0096242D01*
X0025217Y0097240D02*
X0285250Y0097240D01*
X0285250Y0098239D02*
X0025218Y0098239D01*
X0025220Y0099237D02*
X0285250Y0099237D01*
X0285250Y0100236D02*
X0025222Y0100236D01*
X0025223Y0101234D02*
X0285250Y0101234D01*
X0285250Y0102233D02*
X0025225Y0102233D01*
X0025227Y0103231D02*
X0285250Y0103231D01*
X0285250Y0104230D02*
X0025228Y0104230D01*
X0025230Y0105228D02*
X0285250Y0105228D01*
X0285250Y0106227D02*
X0025231Y0106227D01*
X0025233Y0107225D02*
X0285250Y0107225D01*
X0285250Y0108224D02*
X0025235Y0108224D01*
X0025236Y0109222D02*
X0285250Y0109222D01*
X0285250Y0110221D02*
X0025238Y0110221D01*
X0025240Y0111219D02*
X0285250Y0111219D01*
X0285250Y0112218D02*
X0025241Y0112218D01*
X0025243Y0113216D02*
X0285250Y0113216D01*
X0285250Y0114215D02*
X0025244Y0114215D01*
X0025246Y0115213D02*
X0285250Y0115213D01*
X0285250Y0116212D02*
X0025248Y0116212D01*
X0025249Y0117210D02*
X0285250Y0117210D01*
X0285250Y0118209D02*
X0025251Y0118209D01*
X0025252Y0119207D02*
X0285250Y0119207D01*
X0285250Y0120206D02*
X0025254Y0120206D01*
X0025256Y0121205D02*
X0285250Y0121205D01*
X0285250Y0122203D02*
X0025257Y0122203D01*
X0025259Y0123202D02*
X0285250Y0123202D01*
X0285250Y0124200D02*
X0025261Y0124200D01*
X0025262Y0125199D02*
X0285250Y0125199D01*
X0285250Y0126197D02*
X0025264Y0126197D01*
X0025265Y0127196D02*
X0285250Y0127196D01*
X0285250Y0128194D02*
X0025267Y0128194D01*
X0025269Y0129193D02*
X0285250Y0129193D01*
X0285250Y0130191D02*
X0025270Y0130191D01*
X0025272Y0131190D02*
X0285250Y0131190D01*
X0285250Y0132188D02*
X0025274Y0132188D01*
X0025275Y0133187D02*
X0285250Y0133187D01*
X0285250Y0134185D02*
X0025277Y0134185D01*
X0025278Y0135184D02*
X0285250Y0135184D01*
X0285250Y0136182D02*
X0025280Y0136182D01*
X0025282Y0137181D02*
X0285250Y0137181D01*
X0285250Y0138179D02*
X0025283Y0138179D01*
X0025285Y0139178D02*
X0285250Y0139178D01*
X0285250Y0140176D02*
X0025287Y0140176D01*
X0025288Y0141175D02*
X0285250Y0141175D01*
X0285250Y0142173D02*
X0025290Y0142173D01*
X0025291Y0143172D02*
X0285250Y0143172D01*
X0285250Y0144170D02*
X0025293Y0144170D01*
X0211250Y0145169D02*
X0285250Y0145169D01*
X0285250Y0146167D02*
X0211250Y0146167D01*
X0211250Y0147166D02*
X0285250Y0147166D01*
X0285250Y0148164D02*
X0211250Y0148164D01*
X0211250Y0149163D02*
X0285250Y0149163D01*
X0285250Y0150161D02*
X0211250Y0150161D01*
X0211250Y0151160D02*
X0285250Y0151160D01*
X0285250Y0152158D02*
X0211250Y0152158D01*
X0211250Y0153157D02*
X0285250Y0153157D01*
X0285250Y0154155D02*
X0211250Y0154155D01*
X0211250Y0155154D02*
X0285250Y0155154D01*
X0285250Y0156152D02*
X0211250Y0156152D01*
X0211250Y0157151D02*
X0285250Y0157151D01*
X0285250Y0158149D02*
X0211250Y0158149D01*
X0211250Y0159148D02*
X0285250Y0159148D01*
X0285250Y0160146D02*
X0211250Y0160146D01*
X0211250Y0161145D02*
X0285250Y0161145D01*
X0285250Y0162143D02*
X0211250Y0162143D01*
X0211250Y0163142D02*
X0285250Y0163142D01*
X0285250Y0164141D02*
X0211250Y0164141D01*
X0211250Y0165139D02*
X0285250Y0165139D01*
X0285250Y0166138D02*
X0211250Y0166138D01*
X0211250Y0167136D02*
X0285250Y0167136D01*
X0285250Y0168135D02*
X0211250Y0168135D01*
X0211250Y0169133D02*
X0285250Y0169133D01*
X0285250Y0170132D02*
X0211250Y0170132D01*
X0211250Y0171130D02*
X0285250Y0171130D01*
X0285250Y0172129D02*
X0211250Y0172129D01*
X0211250Y0173127D02*
X0285250Y0173127D01*
X0285250Y0174126D02*
X0211250Y0174126D01*
X0211250Y0175124D02*
X0285250Y0175124D01*
X0285250Y0176123D02*
X0211250Y0176123D01*
X0211250Y0177121D02*
X0285250Y0177121D01*
X0285250Y0178120D02*
X0211250Y0178120D01*
X0211250Y0179118D02*
X0285250Y0179118D01*
X0285250Y0180117D02*
X0211250Y0180117D01*
X0211250Y0181115D02*
X0285250Y0181115D01*
X0285250Y0182114D02*
X0211250Y0182114D01*
X0211250Y0183112D02*
X0285250Y0183112D01*
X0285250Y0184111D02*
X0211250Y0184111D01*
X0211250Y0185109D02*
X0285250Y0185109D01*
X0285250Y0186108D02*
X0211250Y0186108D01*
X0211250Y0187106D02*
X0285250Y0187106D01*
X0285250Y0188105D02*
X0211250Y0188105D01*
X0211250Y0189103D02*
X0285250Y0189103D01*
X0285250Y0190102D02*
X0211250Y0190102D01*
X0211250Y0191100D02*
X0285250Y0191100D01*
X0285250Y0192099D02*
X0211250Y0192099D01*
X0211250Y0193097D02*
X0285250Y0193097D01*
X0285250Y0194096D02*
X0211250Y0194096D01*
X0211250Y0195094D02*
X0285250Y0195094D01*
X0285250Y0196093D02*
X0211250Y0196093D01*
X0211250Y0197091D02*
X0285250Y0197091D01*
X0285250Y0198090D02*
X0211250Y0198090D01*
X0211250Y0199088D02*
X0285250Y0199088D01*
X0285250Y0200087D02*
X0211250Y0200087D01*
X0211250Y0201085D02*
X0285250Y0201085D01*
X0285250Y0202084D02*
X0211250Y0202084D01*
X0211250Y0203082D02*
X0285250Y0203082D01*
X0285250Y0204081D02*
X0211250Y0204081D01*
X0211250Y0205079D02*
X0285250Y0205079D01*
X0285250Y0206078D02*
X0211250Y0206078D01*
X0211250Y0207076D02*
X0285250Y0207076D01*
X0285250Y0208075D02*
X0211250Y0208075D01*
X0211250Y0209074D02*
X0285250Y0209074D01*
X0285250Y0210072D02*
X0211250Y0210072D01*
X0211250Y0211071D02*
X0285250Y0211071D01*
X0285250Y0212069D02*
X0211250Y0212069D01*
X0211250Y0213068D02*
X0285250Y0213068D01*
X0285250Y0214066D02*
X0211250Y0214066D01*
X0211250Y0215065D02*
X0285250Y0215065D01*
M02*
