G75*
%MOIN*%
%OFA0B0*%
%FSLAX25Y25*%
%IPPOS*%
%LPD*%
%AMOC8*
5,1,8,0,0,1.08239X$1,22.5*
%
%ADD10C,0.00800*%
%ADD11C,0.00600*%
%ADD12C,0.01000*%
%ADD13C,0.01600*%
%ADD14C,0.02200*%
%ADD15R,0.01500X0.03000*%
%ADD16C,0.01000*%
%ADD17C,0.00500*%
%ADD18C,0.03000*%
%ADD19C,0.01500*%
%ADD20R,0.03000X0.01500*%
%ADD21C,0.00591*%
D10*
X0108738Y0091554D02*
X0134939Y0091554D01*
X0136337Y0092952D01*
X0136337Y0119153D01*
X0108738Y0119153D01*
X0108738Y0091554D01*
X0136337Y0090853D02*
X0136339Y0090902D01*
X0136345Y0090950D01*
X0136355Y0090998D01*
X0136369Y0091045D01*
X0136386Y0091091D01*
X0136407Y0091135D01*
X0136432Y0091177D01*
X0136460Y0091217D01*
X0136492Y0091255D01*
X0136526Y0091290D01*
X0136563Y0091322D01*
X0136602Y0091351D01*
X0136644Y0091377D01*
X0136688Y0091399D01*
X0136733Y0091417D01*
X0136780Y0091432D01*
X0136827Y0091443D01*
X0136876Y0091450D01*
X0136925Y0091453D01*
X0136974Y0091452D01*
X0137022Y0091447D01*
X0137071Y0091438D01*
X0137118Y0091425D01*
X0137164Y0091408D01*
X0137208Y0091388D01*
X0137251Y0091364D01*
X0137292Y0091337D01*
X0137330Y0091306D01*
X0137366Y0091273D01*
X0137398Y0091237D01*
X0137428Y0091198D01*
X0137455Y0091157D01*
X0137478Y0091113D01*
X0137497Y0091068D01*
X0137513Y0091022D01*
X0137525Y0090975D01*
X0137533Y0090926D01*
X0137537Y0090877D01*
X0137537Y0090829D01*
X0137533Y0090780D01*
X0137525Y0090731D01*
X0137513Y0090684D01*
X0137497Y0090638D01*
X0137478Y0090593D01*
X0137455Y0090549D01*
X0137428Y0090508D01*
X0137398Y0090469D01*
X0137366Y0090433D01*
X0137330Y0090400D01*
X0137292Y0090369D01*
X0137251Y0090342D01*
X0137208Y0090318D01*
X0137164Y0090298D01*
X0137118Y0090281D01*
X0137071Y0090268D01*
X0137022Y0090259D01*
X0136974Y0090254D01*
X0136925Y0090253D01*
X0136876Y0090256D01*
X0136827Y0090263D01*
X0136780Y0090274D01*
X0136733Y0090289D01*
X0136688Y0090307D01*
X0136644Y0090329D01*
X0136602Y0090355D01*
X0136563Y0090384D01*
X0136526Y0090416D01*
X0136492Y0090451D01*
X0136460Y0090489D01*
X0136432Y0090529D01*
X0136407Y0090571D01*
X0136386Y0090615D01*
X0136369Y0090661D01*
X0136355Y0090708D01*
X0136345Y0090756D01*
X0136339Y0090804D01*
X0136337Y0090853D01*
X0149651Y0110469D02*
X0154769Y0110469D01*
X0154769Y0125232D02*
X0149651Y0125232D01*
X0148250Y0132865D02*
X0143250Y0132865D01*
X0140750Y0135365D01*
X0138250Y0132865D01*
X0133250Y0132865D01*
X0130750Y0135365D01*
X0130750Y0140365D01*
X0133250Y0142865D01*
X0138250Y0142865D01*
X0140750Y0140365D01*
X0143250Y0142865D01*
X0148250Y0142865D01*
X0150750Y0140365D01*
X0150750Y0135365D01*
X0148250Y0132865D01*
X0154650Y0136066D02*
X0155451Y0135265D01*
X0157052Y0135265D01*
X0157853Y0136066D01*
X0159806Y0136066D02*
X0160607Y0135265D01*
X0162208Y0135265D01*
X0163009Y0136066D01*
X0163009Y0139269D01*
X0162208Y0140069D01*
X0160607Y0140069D01*
X0159806Y0139269D01*
X0159806Y0136066D01*
X0157853Y0139269D02*
X0157052Y0140069D01*
X0155451Y0140069D01*
X0154650Y0139269D01*
X0154650Y0136066D01*
X0164963Y0135265D02*
X0164963Y0140069D01*
X0166564Y0138468D01*
X0168166Y0140069D01*
X0168166Y0135265D01*
X0170119Y0135265D02*
X0170119Y0140069D01*
X0171721Y0138468D01*
X0173322Y0140069D01*
X0173322Y0135265D01*
X0175276Y0136066D02*
X0176076Y0135265D01*
X0177678Y0135265D01*
X0178478Y0136066D01*
X0178478Y0136867D01*
X0177678Y0137667D01*
X0176076Y0137667D01*
X0175276Y0138468D01*
X0175276Y0139269D01*
X0176076Y0140069D01*
X0177678Y0140069D01*
X0178478Y0139269D01*
X0232026Y0175680D02*
X0232026Y0181586D01*
X0232026Y0175680D02*
X0241474Y0175680D01*
X0241474Y0181586D01*
X0241474Y0189460D02*
X0241474Y0193790D01*
X0239900Y0195365D01*
X0233600Y0195365D01*
X0232026Y0193790D01*
X0232026Y0189460D01*
X0250425Y0182831D02*
X0250425Y0179450D01*
X0254368Y0183931D02*
X0256481Y0183931D01*
X0260425Y0182831D02*
X0260425Y0179450D01*
X0250608Y0169235D02*
X0246278Y0169235D01*
X0250608Y0169235D02*
X0252183Y0167661D01*
X0252183Y0161361D01*
X0250608Y0159787D01*
X0246278Y0159787D01*
X0238404Y0159787D02*
X0232498Y0159787D01*
X0232498Y0169235D01*
X0238404Y0169235D01*
X0243937Y0105665D02*
X0243939Y0105712D01*
X0243945Y0105758D01*
X0243954Y0105804D01*
X0243968Y0105848D01*
X0243985Y0105892D01*
X0244006Y0105933D01*
X0244030Y0105973D01*
X0244057Y0106011D01*
X0244088Y0106046D01*
X0244121Y0106079D01*
X0244157Y0106109D01*
X0244196Y0106135D01*
X0244236Y0106159D01*
X0244278Y0106178D01*
X0244322Y0106195D01*
X0244367Y0106207D01*
X0244413Y0106216D01*
X0244459Y0106221D01*
X0244506Y0106222D01*
X0244552Y0106219D01*
X0244598Y0106212D01*
X0244644Y0106201D01*
X0244688Y0106187D01*
X0244731Y0106169D01*
X0244772Y0106147D01*
X0244812Y0106122D01*
X0244849Y0106094D01*
X0244884Y0106063D01*
X0244916Y0106029D01*
X0244945Y0105992D01*
X0244970Y0105954D01*
X0244993Y0105913D01*
X0245012Y0105870D01*
X0245027Y0105826D01*
X0245039Y0105781D01*
X0245047Y0105735D01*
X0245051Y0105688D01*
X0245051Y0105642D01*
X0245047Y0105595D01*
X0245039Y0105549D01*
X0245027Y0105504D01*
X0245012Y0105460D01*
X0244993Y0105417D01*
X0244970Y0105376D01*
X0244945Y0105338D01*
X0244916Y0105301D01*
X0244884Y0105267D01*
X0244849Y0105236D01*
X0244812Y0105208D01*
X0244773Y0105183D01*
X0244731Y0105161D01*
X0244688Y0105143D01*
X0244644Y0105129D01*
X0244598Y0105118D01*
X0244552Y0105111D01*
X0244506Y0105108D01*
X0244459Y0105109D01*
X0244413Y0105114D01*
X0244367Y0105123D01*
X0244322Y0105135D01*
X0244278Y0105152D01*
X0244236Y0105171D01*
X0244196Y0105195D01*
X0244157Y0105221D01*
X0244121Y0105251D01*
X0244088Y0105284D01*
X0244057Y0105319D01*
X0244030Y0105357D01*
X0244006Y0105397D01*
X0243985Y0105438D01*
X0243968Y0105482D01*
X0243954Y0105526D01*
X0243945Y0105572D01*
X0243939Y0105618D01*
X0243937Y0105665D01*
X0244100Y0104090D02*
X0250400Y0104090D01*
X0250400Y0094641D02*
X0244100Y0094641D01*
X0243437Y0083665D02*
X0243439Y0083712D01*
X0243445Y0083758D01*
X0243454Y0083804D01*
X0243468Y0083848D01*
X0243485Y0083892D01*
X0243506Y0083933D01*
X0243530Y0083973D01*
X0243557Y0084011D01*
X0243588Y0084046D01*
X0243621Y0084079D01*
X0243657Y0084109D01*
X0243696Y0084135D01*
X0243736Y0084159D01*
X0243778Y0084178D01*
X0243822Y0084195D01*
X0243867Y0084207D01*
X0243913Y0084216D01*
X0243959Y0084221D01*
X0244006Y0084222D01*
X0244052Y0084219D01*
X0244098Y0084212D01*
X0244144Y0084201D01*
X0244188Y0084187D01*
X0244231Y0084169D01*
X0244272Y0084147D01*
X0244312Y0084122D01*
X0244349Y0084094D01*
X0244384Y0084063D01*
X0244416Y0084029D01*
X0244445Y0083992D01*
X0244470Y0083954D01*
X0244493Y0083913D01*
X0244512Y0083870D01*
X0244527Y0083826D01*
X0244539Y0083781D01*
X0244547Y0083735D01*
X0244551Y0083688D01*
X0244551Y0083642D01*
X0244547Y0083595D01*
X0244539Y0083549D01*
X0244527Y0083504D01*
X0244512Y0083460D01*
X0244493Y0083417D01*
X0244470Y0083376D01*
X0244445Y0083338D01*
X0244416Y0083301D01*
X0244384Y0083267D01*
X0244349Y0083236D01*
X0244312Y0083208D01*
X0244273Y0083183D01*
X0244231Y0083161D01*
X0244188Y0083143D01*
X0244144Y0083129D01*
X0244098Y0083118D01*
X0244052Y0083111D01*
X0244006Y0083108D01*
X0243959Y0083109D01*
X0243913Y0083114D01*
X0243867Y0083123D01*
X0243822Y0083135D01*
X0243778Y0083152D01*
X0243736Y0083171D01*
X0243696Y0083195D01*
X0243657Y0083221D01*
X0243621Y0083251D01*
X0243588Y0083284D01*
X0243557Y0083319D01*
X0243530Y0083357D01*
X0243506Y0083397D01*
X0243485Y0083438D01*
X0243468Y0083482D01*
X0243454Y0083526D01*
X0243445Y0083572D01*
X0243439Y0083618D01*
X0243437Y0083665D01*
X0243600Y0082090D02*
X0249900Y0082090D01*
X0249900Y0072641D02*
X0243600Y0072641D01*
X0243937Y0065165D02*
X0243939Y0065212D01*
X0243945Y0065258D01*
X0243954Y0065304D01*
X0243968Y0065348D01*
X0243985Y0065392D01*
X0244006Y0065433D01*
X0244030Y0065473D01*
X0244057Y0065511D01*
X0244088Y0065546D01*
X0244121Y0065579D01*
X0244157Y0065609D01*
X0244196Y0065635D01*
X0244236Y0065659D01*
X0244278Y0065678D01*
X0244322Y0065695D01*
X0244367Y0065707D01*
X0244413Y0065716D01*
X0244459Y0065721D01*
X0244506Y0065722D01*
X0244552Y0065719D01*
X0244598Y0065712D01*
X0244644Y0065701D01*
X0244688Y0065687D01*
X0244731Y0065669D01*
X0244772Y0065647D01*
X0244812Y0065622D01*
X0244849Y0065594D01*
X0244884Y0065563D01*
X0244916Y0065529D01*
X0244945Y0065492D01*
X0244970Y0065454D01*
X0244993Y0065413D01*
X0245012Y0065370D01*
X0245027Y0065326D01*
X0245039Y0065281D01*
X0245047Y0065235D01*
X0245051Y0065188D01*
X0245051Y0065142D01*
X0245047Y0065095D01*
X0245039Y0065049D01*
X0245027Y0065004D01*
X0245012Y0064960D01*
X0244993Y0064917D01*
X0244970Y0064876D01*
X0244945Y0064838D01*
X0244916Y0064801D01*
X0244884Y0064767D01*
X0244849Y0064736D01*
X0244812Y0064708D01*
X0244773Y0064683D01*
X0244731Y0064661D01*
X0244688Y0064643D01*
X0244644Y0064629D01*
X0244598Y0064618D01*
X0244552Y0064611D01*
X0244506Y0064608D01*
X0244459Y0064609D01*
X0244413Y0064614D01*
X0244367Y0064623D01*
X0244322Y0064635D01*
X0244278Y0064652D01*
X0244236Y0064671D01*
X0244196Y0064695D01*
X0244157Y0064721D01*
X0244121Y0064751D01*
X0244088Y0064784D01*
X0244057Y0064819D01*
X0244030Y0064857D01*
X0244006Y0064897D01*
X0243985Y0064938D01*
X0243968Y0064982D01*
X0243954Y0065026D01*
X0243945Y0065072D01*
X0243939Y0065118D01*
X0243937Y0065165D01*
X0244100Y0063590D02*
X0250400Y0063590D01*
X0250400Y0054141D02*
X0244100Y0054141D01*
X0243937Y0044665D02*
X0243939Y0044712D01*
X0243945Y0044758D01*
X0243954Y0044804D01*
X0243968Y0044848D01*
X0243985Y0044892D01*
X0244006Y0044933D01*
X0244030Y0044973D01*
X0244057Y0045011D01*
X0244088Y0045046D01*
X0244121Y0045079D01*
X0244157Y0045109D01*
X0244196Y0045135D01*
X0244236Y0045159D01*
X0244278Y0045178D01*
X0244322Y0045195D01*
X0244367Y0045207D01*
X0244413Y0045216D01*
X0244459Y0045221D01*
X0244506Y0045222D01*
X0244552Y0045219D01*
X0244598Y0045212D01*
X0244644Y0045201D01*
X0244688Y0045187D01*
X0244731Y0045169D01*
X0244772Y0045147D01*
X0244812Y0045122D01*
X0244849Y0045094D01*
X0244884Y0045063D01*
X0244916Y0045029D01*
X0244945Y0044992D01*
X0244970Y0044954D01*
X0244993Y0044913D01*
X0245012Y0044870D01*
X0245027Y0044826D01*
X0245039Y0044781D01*
X0245047Y0044735D01*
X0245051Y0044688D01*
X0245051Y0044642D01*
X0245047Y0044595D01*
X0245039Y0044549D01*
X0245027Y0044504D01*
X0245012Y0044460D01*
X0244993Y0044417D01*
X0244970Y0044376D01*
X0244945Y0044338D01*
X0244916Y0044301D01*
X0244884Y0044267D01*
X0244849Y0044236D01*
X0244812Y0044208D01*
X0244773Y0044183D01*
X0244731Y0044161D01*
X0244688Y0044143D01*
X0244644Y0044129D01*
X0244598Y0044118D01*
X0244552Y0044111D01*
X0244506Y0044108D01*
X0244459Y0044109D01*
X0244413Y0044114D01*
X0244367Y0044123D01*
X0244322Y0044135D01*
X0244278Y0044152D01*
X0244236Y0044171D01*
X0244196Y0044195D01*
X0244157Y0044221D01*
X0244121Y0044251D01*
X0244088Y0044284D01*
X0244057Y0044319D01*
X0244030Y0044357D01*
X0244006Y0044397D01*
X0243985Y0044438D01*
X0243968Y0044482D01*
X0243954Y0044526D01*
X0243945Y0044572D01*
X0243939Y0044618D01*
X0243937Y0044665D01*
X0244100Y0043090D02*
X0250400Y0043090D01*
X0250400Y0033641D02*
X0244100Y0033641D01*
X0100162Y0143028D02*
X0097462Y0143028D01*
X0067447Y0135769D02*
X0067447Y0134167D01*
X0066646Y0133367D01*
X0064244Y0133367D01*
X0064244Y0131765D02*
X0064244Y0136569D01*
X0066646Y0136569D01*
X0067447Y0135769D01*
X0062290Y0135769D02*
X0061490Y0136569D01*
X0059888Y0136569D01*
X0059088Y0135769D01*
X0059088Y0134968D01*
X0059888Y0134167D01*
X0061490Y0134167D01*
X0062290Y0133367D01*
X0062290Y0132566D01*
X0061490Y0131765D01*
X0059888Y0131765D01*
X0059088Y0132566D01*
X0057251Y0131765D02*
X0055650Y0131765D01*
X0056451Y0131765D02*
X0056451Y0136569D01*
X0057251Y0136569D02*
X0055650Y0136569D01*
D11*
X0072550Y0136268D02*
X0072550Y0133665D01*
X0072550Y0134533D02*
X0073851Y0134533D01*
X0074285Y0134966D01*
X0074285Y0135834D01*
X0073851Y0136268D01*
X0072550Y0136268D01*
X0073417Y0134533D02*
X0074285Y0133665D01*
X0075497Y0134099D02*
X0075930Y0133665D01*
X0076798Y0133665D01*
X0077231Y0134099D01*
X0077231Y0134533D01*
X0076798Y0134966D01*
X0075930Y0134966D01*
X0075497Y0135400D01*
X0075497Y0135834D01*
X0075930Y0136268D01*
X0076798Y0136268D01*
X0077231Y0135834D01*
X0078443Y0136268D02*
X0080178Y0136268D01*
X0079310Y0136268D02*
X0079310Y0133665D01*
X0085050Y0134099D02*
X0085484Y0133665D01*
X0086351Y0133665D01*
X0086785Y0134099D01*
X0086785Y0134533D01*
X0086351Y0134966D01*
X0085484Y0134966D01*
X0085050Y0135400D01*
X0085050Y0135834D01*
X0085484Y0136268D01*
X0086351Y0136268D01*
X0086785Y0135834D01*
X0087997Y0135834D02*
X0087997Y0134099D01*
X0088430Y0133665D01*
X0089298Y0133665D01*
X0089731Y0134099D01*
X0090943Y0134533D02*
X0092678Y0136268D01*
X0090943Y0136268D02*
X0090943Y0133665D01*
X0091377Y0134966D02*
X0092678Y0133665D01*
X0089731Y0135834D02*
X0089298Y0136268D01*
X0088430Y0136268D01*
X0087997Y0135834D01*
X0097550Y0136268D02*
X0098417Y0135400D01*
X0099285Y0136268D01*
X0099285Y0133665D01*
X0100497Y0133665D02*
X0101364Y0133665D01*
X0100930Y0133665D02*
X0100930Y0136268D01*
X0100497Y0136268D02*
X0101364Y0136268D01*
X0102461Y0135834D02*
X0102461Y0135400D01*
X0102895Y0134966D01*
X0103762Y0134966D01*
X0104196Y0134533D01*
X0104196Y0134099D01*
X0103762Y0133665D01*
X0102895Y0133665D01*
X0102461Y0134099D01*
X0102461Y0135834D02*
X0102895Y0136268D01*
X0103762Y0136268D01*
X0104196Y0135834D01*
X0105407Y0135834D02*
X0105407Y0134099D01*
X0105841Y0133665D01*
X0106708Y0133665D01*
X0107142Y0134099D01*
X0107142Y0135834D01*
X0106708Y0136268D01*
X0105841Y0136268D01*
X0105407Y0135834D01*
X0097550Y0136268D02*
X0097550Y0133665D01*
X0097984Y0126268D02*
X0098851Y0126268D01*
X0099285Y0125834D01*
X0099285Y0125400D01*
X0098851Y0124966D01*
X0099285Y0124533D01*
X0099285Y0124099D01*
X0098851Y0123665D01*
X0097984Y0123665D01*
X0097550Y0124099D01*
X0098417Y0124966D02*
X0098851Y0124966D01*
X0097550Y0125834D02*
X0097984Y0126268D01*
X0100497Y0124099D02*
X0100930Y0124099D01*
X0100930Y0123665D01*
X0100497Y0123665D01*
X0100497Y0124099D01*
X0101970Y0124099D02*
X0102403Y0123665D01*
X0103271Y0123665D01*
X0103705Y0124099D01*
X0103705Y0124533D01*
X0103271Y0124966D01*
X0102837Y0124966D01*
X0103271Y0124966D02*
X0103705Y0125400D01*
X0103705Y0125834D01*
X0103271Y0126268D01*
X0102403Y0126268D01*
X0101970Y0125834D01*
X0093757Y0126268D02*
X0092890Y0126268D01*
X0093323Y0126268D02*
X0093323Y0123665D01*
X0092890Y0123665D02*
X0093757Y0123665D01*
X0091678Y0124099D02*
X0091244Y0123665D01*
X0090377Y0123665D01*
X0089943Y0124099D01*
X0090377Y0124966D02*
X0091244Y0124966D01*
X0091678Y0124533D01*
X0091678Y0124099D01*
X0090377Y0124966D02*
X0089943Y0125400D01*
X0089943Y0125834D01*
X0090377Y0126268D01*
X0091244Y0126268D01*
X0091678Y0125834D01*
X0088731Y0125834D02*
X0088731Y0124099D01*
X0088298Y0123665D01*
X0087430Y0123665D01*
X0086997Y0124099D01*
X0086997Y0125834D01*
X0087430Y0126268D01*
X0088298Y0126268D01*
X0088731Y0125834D01*
X0085785Y0126268D02*
X0085785Y0123665D01*
X0084050Y0123665D02*
X0084050Y0126268D01*
X0084917Y0125400D01*
X0085785Y0126268D01*
X0080178Y0125334D02*
X0080178Y0123599D01*
X0079744Y0123165D01*
X0078443Y0123165D01*
X0078443Y0125768D01*
X0079744Y0125768D01*
X0080178Y0125334D01*
X0077231Y0125768D02*
X0077231Y0123165D01*
X0075497Y0125768D01*
X0075497Y0123165D01*
X0074285Y0123599D02*
X0074285Y0124466D01*
X0073417Y0124466D01*
X0072550Y0123599D02*
X0072984Y0123165D01*
X0073851Y0123165D01*
X0074285Y0123599D01*
X0074285Y0125334D02*
X0073851Y0125768D01*
X0072984Y0125768D01*
X0072550Y0125334D01*
X0072550Y0123599D01*
X0132050Y0128165D02*
X0132050Y0130768D01*
X0133351Y0130768D01*
X0133785Y0130334D01*
X0133785Y0129466D01*
X0133351Y0129033D01*
X0132050Y0129033D01*
X0132917Y0129033D02*
X0133785Y0128165D01*
X0134997Y0128165D02*
X0136731Y0130768D01*
X0137943Y0130768D02*
X0138810Y0130768D01*
X0138377Y0130768D02*
X0138377Y0128165D01*
X0138810Y0128165D02*
X0137943Y0128165D01*
X0136731Y0128165D02*
X0134997Y0130768D01*
X0142050Y0130768D02*
X0143785Y0130768D01*
X0142917Y0130768D02*
X0142917Y0128165D01*
X0144997Y0128165D02*
X0146731Y0130768D01*
X0147943Y0130334D02*
X0147943Y0128599D01*
X0148377Y0128165D01*
X0149244Y0128165D01*
X0149678Y0128599D01*
X0149678Y0130334D01*
X0149244Y0130768D01*
X0148377Y0130768D01*
X0147943Y0130334D01*
X0146731Y0128165D02*
X0144997Y0130768D01*
X0237850Y0130378D02*
X0237850Y0148353D01*
X0239550Y0134565D02*
X0239552Y0134649D01*
X0239558Y0134734D01*
X0239568Y0134817D01*
X0239582Y0134901D01*
X0239599Y0134983D01*
X0239621Y0135065D01*
X0239646Y0135145D01*
X0239675Y0135224D01*
X0239708Y0135302D01*
X0239744Y0135378D01*
X0239784Y0135453D01*
X0239828Y0135525D01*
X0239874Y0135596D01*
X0239924Y0135664D01*
X0239977Y0135729D01*
X0240033Y0135792D01*
X0240092Y0135853D01*
X0240154Y0135910D01*
X0240218Y0135965D01*
X0240285Y0136016D01*
X0240354Y0136065D01*
X0240426Y0136110D01*
X0240499Y0136151D01*
X0240574Y0136189D01*
X0240651Y0136224D01*
X0240730Y0136255D01*
X0240810Y0136282D01*
X0240891Y0136305D01*
X0240973Y0136325D01*
X0241056Y0136341D01*
X0241139Y0136353D01*
X0241224Y0136361D01*
X0241308Y0136365D01*
X0241392Y0136365D01*
X0241476Y0136361D01*
X0241561Y0136353D01*
X0241644Y0136341D01*
X0241727Y0136325D01*
X0241809Y0136305D01*
X0241890Y0136282D01*
X0241970Y0136255D01*
X0242049Y0136224D01*
X0242126Y0136189D01*
X0242201Y0136151D01*
X0242274Y0136110D01*
X0242346Y0136065D01*
X0242415Y0136016D01*
X0242482Y0135965D01*
X0242546Y0135910D01*
X0242608Y0135853D01*
X0242667Y0135792D01*
X0242723Y0135729D01*
X0242776Y0135664D01*
X0242826Y0135596D01*
X0242872Y0135525D01*
X0242916Y0135453D01*
X0242956Y0135378D01*
X0242992Y0135302D01*
X0243025Y0135224D01*
X0243054Y0135145D01*
X0243079Y0135065D01*
X0243101Y0134983D01*
X0243118Y0134901D01*
X0243132Y0134817D01*
X0243142Y0134734D01*
X0243148Y0134649D01*
X0243150Y0134565D01*
X0243148Y0134481D01*
X0243142Y0134396D01*
X0243132Y0134313D01*
X0243118Y0134229D01*
X0243101Y0134147D01*
X0243079Y0134065D01*
X0243054Y0133985D01*
X0243025Y0133906D01*
X0242992Y0133828D01*
X0242956Y0133752D01*
X0242916Y0133677D01*
X0242872Y0133605D01*
X0242826Y0133534D01*
X0242776Y0133466D01*
X0242723Y0133401D01*
X0242667Y0133338D01*
X0242608Y0133277D01*
X0242546Y0133220D01*
X0242482Y0133165D01*
X0242415Y0133114D01*
X0242346Y0133065D01*
X0242274Y0133020D01*
X0242201Y0132979D01*
X0242126Y0132941D01*
X0242049Y0132906D01*
X0241970Y0132875D01*
X0241890Y0132848D01*
X0241809Y0132825D01*
X0241727Y0132805D01*
X0241644Y0132789D01*
X0241561Y0132777D01*
X0241476Y0132769D01*
X0241392Y0132765D01*
X0241308Y0132765D01*
X0241224Y0132769D01*
X0241139Y0132777D01*
X0241056Y0132789D01*
X0240973Y0132805D01*
X0240891Y0132825D01*
X0240810Y0132848D01*
X0240730Y0132875D01*
X0240651Y0132906D01*
X0240574Y0132941D01*
X0240499Y0132979D01*
X0240426Y0133020D01*
X0240354Y0133065D01*
X0240285Y0133114D01*
X0240218Y0133165D01*
X0240154Y0133220D01*
X0240092Y0133277D01*
X0240033Y0133338D01*
X0239977Y0133401D01*
X0239924Y0133466D01*
X0239874Y0133534D01*
X0239828Y0133605D01*
X0239784Y0133677D01*
X0239744Y0133752D01*
X0239708Y0133828D01*
X0239675Y0133906D01*
X0239646Y0133985D01*
X0239621Y0134065D01*
X0239599Y0134147D01*
X0239582Y0134229D01*
X0239568Y0134313D01*
X0239558Y0134396D01*
X0239552Y0134481D01*
X0239550Y0134565D01*
X0257650Y0130378D02*
X0257650Y0148353D01*
X0275750Y0214365D02*
X0275750Y0217265D01*
X0252750Y0217265D01*
X0252750Y0216865D02*
X0252748Y0216725D01*
X0252742Y0216585D01*
X0252732Y0216445D01*
X0252719Y0216305D01*
X0252701Y0216166D01*
X0252679Y0216027D01*
X0252654Y0215890D01*
X0252625Y0215752D01*
X0252592Y0215616D01*
X0252555Y0215481D01*
X0252514Y0215347D01*
X0252469Y0215214D01*
X0252421Y0215082D01*
X0252369Y0214952D01*
X0252314Y0214823D01*
X0252255Y0214696D01*
X0252192Y0214570D01*
X0252126Y0214446D01*
X0252057Y0214325D01*
X0251984Y0214205D01*
X0251907Y0214087D01*
X0251828Y0213972D01*
X0251745Y0213858D01*
X0251659Y0213748D01*
X0251570Y0213639D01*
X0251478Y0213533D01*
X0251383Y0213430D01*
X0251286Y0213329D01*
X0251185Y0213232D01*
X0251082Y0213137D01*
X0250976Y0213045D01*
X0250867Y0212956D01*
X0250757Y0212870D01*
X0250643Y0212787D01*
X0250528Y0212708D01*
X0250410Y0212631D01*
X0250290Y0212558D01*
X0250169Y0212489D01*
X0250045Y0212423D01*
X0249919Y0212360D01*
X0249792Y0212301D01*
X0249663Y0212246D01*
X0249533Y0212194D01*
X0249401Y0212146D01*
X0249268Y0212101D01*
X0249134Y0212060D01*
X0248999Y0212023D01*
X0248863Y0211990D01*
X0248725Y0211961D01*
X0248588Y0211936D01*
X0248449Y0211914D01*
X0248310Y0211896D01*
X0248170Y0211883D01*
X0248030Y0211873D01*
X0247890Y0211867D01*
X0247750Y0211865D01*
X0247610Y0211867D01*
X0247470Y0211873D01*
X0247330Y0211883D01*
X0247190Y0211896D01*
X0247051Y0211914D01*
X0246912Y0211936D01*
X0246775Y0211961D01*
X0246637Y0211990D01*
X0246501Y0212023D01*
X0246366Y0212060D01*
X0246232Y0212101D01*
X0246099Y0212146D01*
X0245967Y0212194D01*
X0245837Y0212246D01*
X0245708Y0212301D01*
X0245581Y0212360D01*
X0245455Y0212423D01*
X0245331Y0212489D01*
X0245210Y0212558D01*
X0245090Y0212631D01*
X0244972Y0212708D01*
X0244857Y0212787D01*
X0244743Y0212870D01*
X0244633Y0212956D01*
X0244524Y0213045D01*
X0244418Y0213137D01*
X0244315Y0213232D01*
X0244214Y0213329D01*
X0244117Y0213430D01*
X0244022Y0213533D01*
X0243930Y0213639D01*
X0243841Y0213748D01*
X0243755Y0213858D01*
X0243672Y0213972D01*
X0243593Y0214087D01*
X0243516Y0214205D01*
X0243443Y0214325D01*
X0243374Y0214446D01*
X0243308Y0214570D01*
X0243245Y0214696D01*
X0243186Y0214823D01*
X0243131Y0214952D01*
X0243079Y0215082D01*
X0243031Y0215214D01*
X0242986Y0215347D01*
X0242945Y0215481D01*
X0242908Y0215616D01*
X0242875Y0215752D01*
X0242846Y0215890D01*
X0242821Y0216027D01*
X0242799Y0216166D01*
X0242781Y0216305D01*
X0242768Y0216445D01*
X0242758Y0216585D01*
X0242752Y0216725D01*
X0242750Y0216865D01*
X0242750Y0217265D02*
X0219750Y0217265D01*
X0219750Y0214365D01*
X0219750Y0014365D02*
X0219750Y0011465D01*
X0275750Y0011465D01*
X0275750Y0014365D01*
D12*
X0067380Y0091511D02*
X0067380Y0111196D01*
X0047695Y0111196D01*
X0047695Y0091511D01*
X0067380Y0091511D01*
X0061474Y0095448D02*
X0061476Y0095536D01*
X0061482Y0095624D01*
X0061492Y0095712D01*
X0061506Y0095800D01*
X0061523Y0095886D01*
X0061545Y0095972D01*
X0061570Y0096056D01*
X0061600Y0096140D01*
X0061632Y0096222D01*
X0061669Y0096302D01*
X0061709Y0096381D01*
X0061753Y0096458D01*
X0061800Y0096533D01*
X0061850Y0096605D01*
X0061904Y0096676D01*
X0061960Y0096743D01*
X0062020Y0096809D01*
X0062082Y0096871D01*
X0062148Y0096931D01*
X0062215Y0096987D01*
X0062286Y0097041D01*
X0062358Y0097091D01*
X0062433Y0097138D01*
X0062510Y0097182D01*
X0062589Y0097222D01*
X0062669Y0097259D01*
X0062751Y0097291D01*
X0062835Y0097321D01*
X0062919Y0097346D01*
X0063005Y0097368D01*
X0063091Y0097385D01*
X0063179Y0097399D01*
X0063267Y0097409D01*
X0063355Y0097415D01*
X0063443Y0097417D01*
X0063531Y0097415D01*
X0063619Y0097409D01*
X0063707Y0097399D01*
X0063795Y0097385D01*
X0063881Y0097368D01*
X0063967Y0097346D01*
X0064051Y0097321D01*
X0064135Y0097291D01*
X0064217Y0097259D01*
X0064297Y0097222D01*
X0064376Y0097182D01*
X0064453Y0097138D01*
X0064528Y0097091D01*
X0064600Y0097041D01*
X0064671Y0096987D01*
X0064738Y0096931D01*
X0064804Y0096871D01*
X0064866Y0096809D01*
X0064926Y0096743D01*
X0064982Y0096676D01*
X0065036Y0096605D01*
X0065086Y0096533D01*
X0065133Y0096458D01*
X0065177Y0096381D01*
X0065217Y0096302D01*
X0065254Y0096222D01*
X0065286Y0096140D01*
X0065316Y0096056D01*
X0065341Y0095972D01*
X0065363Y0095886D01*
X0065380Y0095800D01*
X0065394Y0095712D01*
X0065404Y0095624D01*
X0065410Y0095536D01*
X0065412Y0095448D01*
X0065410Y0095360D01*
X0065404Y0095272D01*
X0065394Y0095184D01*
X0065380Y0095096D01*
X0065363Y0095010D01*
X0065341Y0094924D01*
X0065316Y0094840D01*
X0065286Y0094756D01*
X0065254Y0094674D01*
X0065217Y0094594D01*
X0065177Y0094515D01*
X0065133Y0094438D01*
X0065086Y0094363D01*
X0065036Y0094291D01*
X0064982Y0094220D01*
X0064926Y0094153D01*
X0064866Y0094087D01*
X0064804Y0094025D01*
X0064738Y0093965D01*
X0064671Y0093909D01*
X0064600Y0093855D01*
X0064528Y0093805D01*
X0064453Y0093758D01*
X0064376Y0093714D01*
X0064297Y0093674D01*
X0064217Y0093637D01*
X0064135Y0093605D01*
X0064051Y0093575D01*
X0063967Y0093550D01*
X0063881Y0093528D01*
X0063795Y0093511D01*
X0063707Y0093497D01*
X0063619Y0093487D01*
X0063531Y0093481D01*
X0063443Y0093479D01*
X0063355Y0093481D01*
X0063267Y0093487D01*
X0063179Y0093497D01*
X0063091Y0093511D01*
X0063005Y0093528D01*
X0062919Y0093550D01*
X0062835Y0093575D01*
X0062751Y0093605D01*
X0062669Y0093637D01*
X0062589Y0093674D01*
X0062510Y0093714D01*
X0062433Y0093758D01*
X0062358Y0093805D01*
X0062286Y0093855D01*
X0062215Y0093909D01*
X0062148Y0093965D01*
X0062082Y0094025D01*
X0062020Y0094087D01*
X0061960Y0094153D01*
X0061904Y0094220D01*
X0061850Y0094291D01*
X0061800Y0094363D01*
X0061753Y0094438D01*
X0061709Y0094515D01*
X0061669Y0094594D01*
X0061632Y0094674D01*
X0061600Y0094756D01*
X0061570Y0094840D01*
X0061545Y0094924D01*
X0061523Y0095010D01*
X0061506Y0095096D01*
X0061492Y0095184D01*
X0061482Y0095272D01*
X0061476Y0095360D01*
X0061474Y0095448D01*
X0226557Y0208865D02*
X0226559Y0208968D01*
X0226565Y0209071D01*
X0226575Y0209174D01*
X0226589Y0209276D01*
X0226606Y0209378D01*
X0226628Y0209479D01*
X0226653Y0209579D01*
X0226683Y0209678D01*
X0226716Y0209775D01*
X0226752Y0209872D01*
X0226793Y0209967D01*
X0226837Y0210060D01*
X0226884Y0210151D01*
X0226935Y0210241D01*
X0226990Y0210329D01*
X0227047Y0210414D01*
X0227108Y0210498D01*
X0227172Y0210578D01*
X0227240Y0210657D01*
X0227310Y0210732D01*
X0227383Y0210805D01*
X0227458Y0210875D01*
X0227537Y0210943D01*
X0227617Y0211007D01*
X0227701Y0211068D01*
X0227786Y0211125D01*
X0227874Y0211180D01*
X0227964Y0211231D01*
X0228055Y0211278D01*
X0228148Y0211322D01*
X0228243Y0211363D01*
X0228340Y0211399D01*
X0228437Y0211432D01*
X0228536Y0211462D01*
X0228636Y0211487D01*
X0228737Y0211509D01*
X0228839Y0211526D01*
X0228941Y0211540D01*
X0229044Y0211550D01*
X0229147Y0211556D01*
X0229250Y0211558D01*
X0229353Y0211556D01*
X0229456Y0211550D01*
X0229559Y0211540D01*
X0229661Y0211526D01*
X0229763Y0211509D01*
X0229864Y0211487D01*
X0229964Y0211462D01*
X0230063Y0211432D01*
X0230160Y0211399D01*
X0230257Y0211363D01*
X0230352Y0211322D01*
X0230445Y0211278D01*
X0230536Y0211231D01*
X0230626Y0211180D01*
X0230714Y0211125D01*
X0230799Y0211068D01*
X0230883Y0211007D01*
X0230963Y0210943D01*
X0231042Y0210875D01*
X0231117Y0210805D01*
X0231190Y0210732D01*
X0231260Y0210657D01*
X0231328Y0210578D01*
X0231392Y0210498D01*
X0231453Y0210414D01*
X0231510Y0210329D01*
X0231565Y0210241D01*
X0231616Y0210151D01*
X0231663Y0210060D01*
X0231707Y0209967D01*
X0231748Y0209872D01*
X0231784Y0209775D01*
X0231817Y0209678D01*
X0231847Y0209579D01*
X0231872Y0209479D01*
X0231894Y0209378D01*
X0231911Y0209276D01*
X0231925Y0209174D01*
X0231935Y0209071D01*
X0231941Y0208968D01*
X0231943Y0208865D01*
X0231941Y0208762D01*
X0231935Y0208659D01*
X0231925Y0208556D01*
X0231911Y0208454D01*
X0231894Y0208352D01*
X0231872Y0208251D01*
X0231847Y0208151D01*
X0231817Y0208052D01*
X0231784Y0207955D01*
X0231748Y0207858D01*
X0231707Y0207763D01*
X0231663Y0207670D01*
X0231616Y0207579D01*
X0231565Y0207489D01*
X0231510Y0207401D01*
X0231453Y0207316D01*
X0231392Y0207232D01*
X0231328Y0207152D01*
X0231260Y0207073D01*
X0231190Y0206998D01*
X0231117Y0206925D01*
X0231042Y0206855D01*
X0230963Y0206787D01*
X0230883Y0206723D01*
X0230799Y0206662D01*
X0230714Y0206605D01*
X0230626Y0206550D01*
X0230536Y0206499D01*
X0230445Y0206452D01*
X0230352Y0206408D01*
X0230257Y0206367D01*
X0230160Y0206331D01*
X0230063Y0206298D01*
X0229964Y0206268D01*
X0229864Y0206243D01*
X0229763Y0206221D01*
X0229661Y0206204D01*
X0229559Y0206190D01*
X0229456Y0206180D01*
X0229353Y0206174D01*
X0229250Y0206172D01*
X0229147Y0206174D01*
X0229044Y0206180D01*
X0228941Y0206190D01*
X0228839Y0206204D01*
X0228737Y0206221D01*
X0228636Y0206243D01*
X0228536Y0206268D01*
X0228437Y0206298D01*
X0228340Y0206331D01*
X0228243Y0206367D01*
X0228148Y0206408D01*
X0228055Y0206452D01*
X0227964Y0206499D01*
X0227874Y0206550D01*
X0227786Y0206605D01*
X0227701Y0206662D01*
X0227617Y0206723D01*
X0227537Y0206787D01*
X0227458Y0206855D01*
X0227383Y0206925D01*
X0227310Y0206998D01*
X0227240Y0207073D01*
X0227172Y0207152D01*
X0227108Y0207232D01*
X0227047Y0207316D01*
X0226990Y0207401D01*
X0226935Y0207489D01*
X0226884Y0207579D01*
X0226837Y0207670D01*
X0226793Y0207763D01*
X0226752Y0207858D01*
X0226716Y0207955D01*
X0226683Y0208052D01*
X0226653Y0208151D01*
X0226628Y0208251D01*
X0226606Y0208352D01*
X0226589Y0208454D01*
X0226575Y0208556D01*
X0226565Y0208659D01*
X0226559Y0208762D01*
X0226557Y0208865D01*
D13*
X0141250Y0047365D02*
X0141252Y0047428D01*
X0141258Y0047490D01*
X0141268Y0047552D01*
X0141281Y0047614D01*
X0141299Y0047674D01*
X0141320Y0047733D01*
X0141345Y0047791D01*
X0141374Y0047847D01*
X0141406Y0047901D01*
X0141441Y0047953D01*
X0141479Y0048002D01*
X0141521Y0048050D01*
X0141565Y0048094D01*
X0141613Y0048136D01*
X0141662Y0048174D01*
X0141714Y0048209D01*
X0141768Y0048241D01*
X0141824Y0048270D01*
X0141882Y0048295D01*
X0141941Y0048316D01*
X0142001Y0048334D01*
X0142063Y0048347D01*
X0142125Y0048357D01*
X0142187Y0048363D01*
X0142250Y0048365D01*
X0142313Y0048363D01*
X0142375Y0048357D01*
X0142437Y0048347D01*
X0142499Y0048334D01*
X0142559Y0048316D01*
X0142618Y0048295D01*
X0142676Y0048270D01*
X0142732Y0048241D01*
X0142786Y0048209D01*
X0142838Y0048174D01*
X0142887Y0048136D01*
X0142935Y0048094D01*
X0142979Y0048050D01*
X0143021Y0048002D01*
X0143059Y0047953D01*
X0143094Y0047901D01*
X0143126Y0047847D01*
X0143155Y0047791D01*
X0143180Y0047733D01*
X0143201Y0047674D01*
X0143219Y0047614D01*
X0143232Y0047552D01*
X0143242Y0047490D01*
X0143248Y0047428D01*
X0143250Y0047365D01*
X0143248Y0047302D01*
X0143242Y0047240D01*
X0143232Y0047178D01*
X0143219Y0047116D01*
X0143201Y0047056D01*
X0143180Y0046997D01*
X0143155Y0046939D01*
X0143126Y0046883D01*
X0143094Y0046829D01*
X0143059Y0046777D01*
X0143021Y0046728D01*
X0142979Y0046680D01*
X0142935Y0046636D01*
X0142887Y0046594D01*
X0142838Y0046556D01*
X0142786Y0046521D01*
X0142732Y0046489D01*
X0142676Y0046460D01*
X0142618Y0046435D01*
X0142559Y0046414D01*
X0142499Y0046396D01*
X0142437Y0046383D01*
X0142375Y0046373D01*
X0142313Y0046367D01*
X0142250Y0046365D01*
X0142187Y0046367D01*
X0142125Y0046373D01*
X0142063Y0046383D01*
X0142001Y0046396D01*
X0141941Y0046414D01*
X0141882Y0046435D01*
X0141824Y0046460D01*
X0141768Y0046489D01*
X0141714Y0046521D01*
X0141662Y0046556D01*
X0141613Y0046594D01*
X0141565Y0046636D01*
X0141521Y0046680D01*
X0141479Y0046728D01*
X0141441Y0046777D01*
X0141406Y0046829D01*
X0141374Y0046883D01*
X0141345Y0046939D01*
X0141320Y0046997D01*
X0141299Y0047056D01*
X0141281Y0047116D01*
X0141268Y0047178D01*
X0141258Y0047240D01*
X0141252Y0047302D01*
X0141250Y0047365D01*
D14*
X0071357Y0072553D02*
X0071117Y0072553D01*
X0071017Y0085353D02*
X0071257Y0085353D01*
D15*
X0072937Y0052053D03*
X0073037Y0044353D03*
X0165250Y0092365D03*
D16*
X0249125Y0177141D03*
D17*
X0056300Y0022515D02*
X0001250Y0022515D01*
X0001250Y0022865D02*
X0001250Y0073865D01*
X0001250Y0074215D02*
X0056300Y0074215D01*
X0056350Y0073965D02*
X0056350Y0022765D01*
X0031750Y0028365D02*
X0006750Y0030865D01*
X0006750Y0043365D01*
X0031750Y0045865D01*
X0031750Y0050865D02*
X0006750Y0053365D01*
X0006750Y0065865D01*
X0031750Y0068365D01*
X0110876Y0058550D02*
X0110876Y0034158D01*
X0128199Y0034158D01*
X0128199Y0059749D01*
X0112074Y0059749D01*
X0110876Y0058550D01*
X0178589Y0093570D02*
X0178589Y0117962D01*
X0179787Y0119161D01*
X0195911Y0119161D01*
X0195911Y0093570D01*
X0178589Y0093570D01*
X0243600Y0083271D02*
X0243994Y0083271D01*
X0243994Y0083665D01*
X0244494Y0065165D02*
X0244494Y0064771D01*
X0244100Y0064771D01*
X0244494Y0044665D02*
X0244494Y0044271D01*
X0244100Y0044271D01*
X0244100Y0105271D02*
X0244494Y0105271D01*
X0244494Y0105665D01*
X0243841Y0160511D02*
X0243841Y0168511D01*
X0240750Y0187023D02*
X0232750Y0187023D01*
D18*
X0177250Y0121365D03*
X0109537Y0061953D03*
D19*
X0096537Y0065743D02*
X0096537Y0065963D01*
X0130427Y0069853D02*
X0130647Y0069853D01*
X0150853Y0100991D02*
X0151073Y0100991D01*
X0184250Y0124255D02*
X0184250Y0124475D01*
X0201750Y0124475D02*
X0201750Y0124255D01*
X0255825Y0194531D02*
X0255825Y0194751D01*
X0097147Y0105353D02*
X0096927Y0105353D01*
X0082737Y0095063D02*
X0082737Y0094843D01*
X0092427Y0025853D02*
X0092647Y0025853D01*
D20*
X0099537Y0043353D03*
X0097037Y0085853D03*
X0087037Y0106353D03*
X0079037Y0106353D03*
D21*
X0092340Y0032546D02*
X0092342Y0032573D01*
X0092348Y0032600D01*
X0092357Y0032626D01*
X0092370Y0032650D01*
X0092386Y0032673D01*
X0092405Y0032692D01*
X0092427Y0032709D01*
X0092451Y0032723D01*
X0092476Y0032733D01*
X0092503Y0032740D01*
X0092530Y0032743D01*
X0092558Y0032742D01*
X0092585Y0032737D01*
X0092611Y0032729D01*
X0092635Y0032717D01*
X0092658Y0032701D01*
X0092679Y0032683D01*
X0092696Y0032662D01*
X0092711Y0032638D01*
X0092722Y0032613D01*
X0092730Y0032587D01*
X0092734Y0032560D01*
X0092734Y0032532D01*
X0092730Y0032505D01*
X0092722Y0032479D01*
X0092711Y0032454D01*
X0092696Y0032430D01*
X0092679Y0032409D01*
X0092658Y0032391D01*
X0092636Y0032375D01*
X0092611Y0032363D01*
X0092585Y0032355D01*
X0092558Y0032350D01*
X0092530Y0032349D01*
X0092503Y0032352D01*
X0092476Y0032359D01*
X0092451Y0032369D01*
X0092427Y0032383D01*
X0092405Y0032400D01*
X0092386Y0032419D01*
X0092370Y0032442D01*
X0092357Y0032466D01*
X0092348Y0032492D01*
X0092342Y0032519D01*
X0092340Y0032546D01*
M02*
