%
M48
M72
T01C0.0200
T02C0.0236
T03C0.0315
T04C0.0400
T05C0.0591
T06C0.0910
%
T01
X7876Y12993
X8876Y12993
X9876Y12993
X9876Y13993
X8876Y13993
X7876Y13993
T02
X7125Y11937
X7904Y11485
X8704Y11535
X6354Y10235
X5754Y10735
X3854Y11185
X9704Y9535
X10554Y8835
X11254Y9585
X11704Y10135
X12454Y10185
X13054Y10285
X12875Y11487
X12254Y11385
X11504Y11435
X11475Y13987
X15625Y10437
X16225Y10237
X15625Y8837
X16625Y7887
X17775Y7937
X18525Y8387
X19875Y9037
X20775Y10037
X18525Y10237
X20875Y11837
X22725Y11937
X23575Y11787
X24425Y11137
X25375Y11337
X25575Y12037
X24519Y13381
X24025Y14387
X25287Y14548
X25625Y16287
X23225Y15487
X23575Y10587
X23875Y8887
X23225Y8037
X22875Y7437
X22925Y5737
X22975Y4937
X22975Y3937
X22925Y2987
X25075Y4487
X25725Y7487
X25675Y8137
X24975Y8387
X19325Y6837
X18325Y5137
X18325Y4287
X17725Y3887
X16775Y3687
X16775Y5887
X10754Y6385
X9754Y5335
T03
X21775Y4937
X21775Y3937
X21775Y2937
X21775Y1937
X21775Y5937
X21775Y6937
X21775Y7937
X21775Y8937
X21775Y9937
X21775Y10937
X21775Y11937
X21775Y12937
X21775Y13937
X21775Y14937
X21775Y15937
X21775Y16937
X21775Y17937
X21775Y18937
X21775Y19937
X21775Y20937
X27775Y20937
X27775Y19937
X27775Y18937
X27775Y17937
X27775Y16937
X27775Y15937
X27775Y14937
X27775Y13937
X27775Y12937
X27775Y11937
X27775Y10937
X27775Y9937
X27775Y8937
X27775Y7937
X27775Y6937
X27775Y5937
X27775Y4937
X27775Y3937
X27775Y2937
X27775Y1937
T04
X14575Y13787
X13575Y13787
T05
X21775Y13937
X21775Y12937
X21775Y11937
X21775Y10937
X21775Y9937
X21775Y8937
X21775Y7937
X21775Y6937
X21775Y5937
X21775Y4937
X21775Y3937
X21775Y2937
X21775Y1937
X27775Y1937
X27775Y2937
X27775Y3937
X27775Y4937
X27775Y5937
X27775Y6937
X27775Y7937
X27775Y8937
X27775Y9937
X27775Y10937
X27775Y11937
X27775Y12937
X27775Y13937
X27775Y14937
X27775Y15937
X27775Y16937
X27775Y17937
X27775Y18937
X27775Y19937
X27775Y20937
X21775Y20937
X21775Y19937
X21775Y18937
X21775Y17937
X21775Y16937
X21775Y15937
X21775Y14937
T06
X4175Y2252
X4175Y7422
M30
