G75*
%MOIN*%
%OFA0B0*%
%FSLAX25Y25*%
%IPPOS*%
%LPD*%
%AMOC8*
5,1,8,0,0,1.08239X$1,22.5*
%
%ADD10R,0.03937X0.04331*%
%ADD11R,0.04331X0.03937*%
%ADD12R,0.02165X0.04724*%
%ADD13R,0.04500X0.01000*%
%ADD14R,0.01000X0.04500*%
%ADD15R,0.05000X0.02200*%
%ADD16R,0.02200X0.05000*%
%ADD17R,0.05906X0.01378*%
%ADD18R,0.05512X0.06299*%
%ADD19R,0.06299X0.05512*%
%ADD20R,0.08661X0.02362*%
%ADD21R,0.02362X0.08661*%
%ADD22C,0.01772*%
%ADD23R,0.11811X0.03543*%
%ADD24R,0.09449X0.08661*%
%ADD25R,0.01200X0.03900*%
%ADD26R,0.03898X0.01181*%
D10*
X0071237Y0069207D03*
X0071237Y0075900D03*
X0071137Y0082007D03*
X0071137Y0088700D03*
X0079037Y0103007D03*
X0079037Y0109700D03*
X0087037Y0109700D03*
X0087037Y0103007D03*
X0097037Y0102007D03*
X0097037Y0108700D03*
X0097037Y0089200D03*
X0097037Y0082507D03*
X0130537Y0073200D03*
X0130537Y0066507D03*
X0099537Y0046700D03*
X0099537Y0040007D03*
X0092537Y0029200D03*
X0092537Y0022507D03*
X0150963Y0097645D03*
X0150963Y0104338D03*
D11*
X0161904Y0092365D03*
X0168596Y0092365D03*
X0180904Y0124365D03*
X0187596Y0124365D03*
X0198404Y0124365D03*
X0205096Y0124365D03*
X0252478Y0194641D03*
X0259171Y0194641D03*
X0099884Y0065853D03*
X0093191Y0065853D03*
X0076284Y0052053D03*
X0069591Y0052053D03*
X0069691Y0044353D03*
X0076384Y0044353D03*
X0079391Y0094953D03*
X0086084Y0094953D03*
D12*
X0251685Y0176022D03*
X0255425Y0176022D03*
X0259165Y0176022D03*
X0259165Y0186259D03*
X0251685Y0186259D03*
D13*
X0071317Y0108243D03*
X0071317Y0106275D03*
X0071317Y0104306D03*
X0071317Y0102338D03*
X0071317Y0100369D03*
X0071317Y0098401D03*
X0071317Y0096432D03*
X0071317Y0094464D03*
X0043758Y0094464D03*
X0043758Y0096432D03*
X0043758Y0098401D03*
X0043758Y0100369D03*
X0043758Y0102338D03*
X0043758Y0104306D03*
X0043758Y0106275D03*
X0043758Y0108243D03*
D14*
X0050648Y0115133D03*
X0052616Y0115133D03*
X0054585Y0115133D03*
X0056553Y0115133D03*
X0058522Y0115133D03*
X0060490Y0115133D03*
X0062459Y0115133D03*
X0064427Y0115133D03*
X0064427Y0087574D03*
X0062459Y0087574D03*
X0060490Y0087574D03*
X0058522Y0087574D03*
X0056553Y0087574D03*
X0054585Y0087574D03*
X0052616Y0087574D03*
X0050648Y0087574D03*
D15*
X0105637Y0094330D03*
X0105637Y0097479D03*
X0105637Y0100629D03*
X0105637Y0103779D03*
X0105637Y0106928D03*
X0105637Y0110078D03*
X0105637Y0113227D03*
X0105637Y0116377D03*
X0139437Y0116377D03*
X0139437Y0113227D03*
X0139437Y0110078D03*
X0139437Y0106928D03*
X0139437Y0103779D03*
X0139437Y0100629D03*
X0139437Y0097479D03*
X0139437Y0094330D03*
D16*
X0133561Y0088453D03*
X0130411Y0088453D03*
X0127262Y0088453D03*
X0124112Y0088453D03*
X0120963Y0088453D03*
X0117813Y0088453D03*
X0114663Y0088453D03*
X0111514Y0088453D03*
X0111514Y0122253D03*
X0114663Y0122253D03*
X0117813Y0122253D03*
X0120963Y0122253D03*
X0124112Y0122253D03*
X0127262Y0122253D03*
X0130411Y0122253D03*
X0133561Y0122253D03*
D17*
X0175183Y0117881D03*
X0175183Y0115322D03*
X0175183Y0112763D03*
X0175183Y0110204D03*
X0175183Y0107645D03*
X0175183Y0105086D03*
X0175183Y0102527D03*
X0175183Y0099968D03*
X0175183Y0097409D03*
X0175183Y0094850D03*
X0199317Y0094909D03*
X0199317Y0097468D03*
X0199317Y0100027D03*
X0199317Y0102586D03*
X0199317Y0105086D03*
X0199317Y0107645D03*
X0199317Y0110204D03*
X0199317Y0112763D03*
X0199317Y0115322D03*
X0199317Y0117881D03*
X0131604Y0058469D03*
X0131604Y0055910D03*
X0131604Y0053351D03*
X0131604Y0050792D03*
X0131604Y0048233D03*
X0131604Y0045674D03*
X0131604Y0043174D03*
X0131604Y0040615D03*
X0131604Y0038056D03*
X0131604Y0035497D03*
X0107470Y0035438D03*
X0107470Y0037997D03*
X0107470Y0040556D03*
X0107470Y0043115D03*
X0107470Y0045674D03*
X0107470Y0048233D03*
X0107470Y0050792D03*
X0107470Y0053351D03*
X0107470Y0055910D03*
X0107470Y0058469D03*
D18*
X0236829Y0164511D03*
X0247852Y0164511D03*
D19*
X0236750Y0180011D03*
X0236750Y0191035D03*
D20*
X0194797Y0062365D03*
X0194797Y0057365D03*
X0194797Y0052365D03*
X0194797Y0047365D03*
X0194797Y0042365D03*
X0194797Y0037365D03*
X0194797Y0032365D03*
X0150703Y0032365D03*
X0150703Y0037365D03*
X0150703Y0042365D03*
X0150703Y0047365D03*
X0150703Y0052365D03*
X0150703Y0057365D03*
X0150703Y0062365D03*
D21*
X0157750Y0069413D03*
X0162750Y0069413D03*
X0167750Y0069413D03*
X0172750Y0069413D03*
X0177750Y0069413D03*
X0182750Y0069413D03*
X0187750Y0069413D03*
X0187750Y0025318D03*
X0182750Y0025318D03*
X0177750Y0025318D03*
X0172750Y0025318D03*
X0167750Y0025318D03*
X0162750Y0025318D03*
X0157750Y0025318D03*
D22*
X0157114Y0113141D02*
X0147386Y0113141D01*
X0147386Y0117865D02*
X0157114Y0117865D01*
X0157114Y0122590D02*
X0147386Y0122590D01*
D23*
X0055333Y0034554D03*
X0055333Y0044428D03*
X0055333Y0052302D03*
X0055333Y0062176D03*
D24*
X0081750Y0066598D03*
X0081750Y0083133D03*
D25*
X0240073Y0127878D03*
X0242632Y0127878D03*
X0245191Y0127878D03*
X0247750Y0127878D03*
X0250309Y0127878D03*
X0252868Y0127878D03*
X0255427Y0127878D03*
X0255427Y0150853D03*
X0252868Y0150853D03*
X0250309Y0150853D03*
X0247750Y0150853D03*
X0245191Y0150853D03*
X0242632Y0150853D03*
X0240073Y0150853D03*
D26*
X0244100Y0101924D03*
X0244100Y0099365D03*
X0244100Y0096806D03*
X0250439Y0096806D03*
X0250439Y0099365D03*
X0250439Y0101924D03*
X0249939Y0079924D03*
X0249939Y0077365D03*
X0249939Y0074806D03*
X0243600Y0074806D03*
X0243600Y0077365D03*
X0243600Y0079924D03*
X0244100Y0061424D03*
X0244100Y0058865D03*
X0244100Y0056306D03*
X0250439Y0056306D03*
X0250439Y0058865D03*
X0250439Y0061424D03*
X0250439Y0040924D03*
X0250439Y0038365D03*
X0250439Y0035806D03*
X0244100Y0035806D03*
X0244100Y0038365D03*
X0244100Y0040924D03*
M02*
