G75*
%MOIN*%
%OFA0B0*%
%FSLAX25Y25*%
%IPPOS*%
%LPD*%
%AMOC8*
5,1,8,0,0,1.08239X$1,22.5*
%
%ADD10C,0.00800*%
D10*
X0028252Y0098165D02*
X0030654Y0098165D01*
X0031454Y0098966D01*
X0031454Y0100567D01*
X0030654Y0101368D01*
X0028252Y0101368D01*
X0028252Y0102969D02*
X0028252Y0098165D01*
X0033349Y0101368D02*
X0034150Y0101368D01*
X0035751Y0099767D01*
X0035751Y0101368D02*
X0035751Y0098165D01*
X0037705Y0098165D02*
X0040107Y0098165D01*
X0040908Y0098966D01*
X0040107Y0099767D01*
X0037705Y0099767D01*
X0037705Y0100567D02*
X0037705Y0098165D01*
X0042861Y0098966D02*
X0042861Y0100567D01*
X0043662Y0101368D01*
X0045263Y0101368D01*
X0046064Y0100567D01*
X0046064Y0098966D01*
X0045263Y0098165D01*
X0043662Y0098165D01*
X0042861Y0098966D01*
X0040107Y0101368D02*
X0038506Y0101368D01*
X0037705Y0100567D01*
X0048018Y0100567D02*
X0048018Y0098966D01*
X0048818Y0098165D01*
X0051220Y0098165D01*
X0051220Y0102969D01*
X0051220Y0101368D02*
X0048818Y0101368D01*
X0048018Y0100567D01*
X0053174Y0101368D02*
X0053174Y0097365D01*
X0053975Y0096564D01*
X0054776Y0096564D01*
X0055576Y0098165D02*
X0053174Y0098165D01*
X0055576Y0098165D02*
X0056377Y0098966D01*
X0056377Y0101368D01*
X0058331Y0100567D02*
X0058331Y0099767D01*
X0061533Y0099767D01*
X0061533Y0100567D02*
X0061533Y0098966D01*
X0060733Y0098165D01*
X0059131Y0098165D01*
X0058331Y0100567D02*
X0059131Y0101368D01*
X0060733Y0101368D01*
X0061533Y0100567D01*
X0063487Y0098165D02*
X0065889Y0100567D01*
X0066690Y0099767D02*
X0063487Y0102969D01*
X0066690Y0102969D02*
X0066690Y0098165D01*
X0068643Y0097365D02*
X0071846Y0097365D01*
X0073800Y0098966D02*
X0074600Y0098165D01*
X0077002Y0098165D01*
X0077002Y0102969D01*
X0074600Y0102969D01*
X0073800Y0102169D01*
X0073800Y0101368D01*
X0074600Y0100567D01*
X0077002Y0100567D01*
X0078956Y0099767D02*
X0078956Y0098966D01*
X0079757Y0098165D01*
X0081358Y0098165D01*
X0082159Y0098966D01*
X0081358Y0100567D02*
X0079757Y0100567D01*
X0078956Y0099767D01*
X0078956Y0102169D02*
X0079757Y0102969D01*
X0081358Y0102969D01*
X0082159Y0102169D01*
X0082159Y0101368D01*
X0081358Y0100567D01*
X0084113Y0098966D02*
X0084113Y0102969D01*
X0087315Y0102969D02*
X0087315Y0098966D01*
X0086515Y0098165D01*
X0084913Y0098165D01*
X0084113Y0098966D01*
X0089269Y0097365D02*
X0092472Y0097365D01*
X0094425Y0098165D02*
X0097628Y0098165D01*
X0097628Y0102969D01*
X0099582Y0102169D02*
X0100382Y0102969D01*
X0101984Y0102969D01*
X0102784Y0102169D01*
X0102784Y0098966D01*
X0101984Y0098165D01*
X0100382Y0098165D01*
X0099582Y0098966D01*
X0099582Y0102169D01*
X0101183Y0099767D02*
X0099582Y0098165D01*
X0104738Y0102969D02*
X0107941Y0098165D01*
X0109895Y0099767D02*
X0113097Y0099767D01*
X0113097Y0100567D02*
X0113097Y0098966D01*
X0112297Y0098165D01*
X0110695Y0098165D01*
X0109895Y0099767D02*
X0109895Y0100567D01*
X0110695Y0101368D01*
X0112297Y0101368D01*
X0113097Y0100567D01*
X0115051Y0100567D02*
X0115051Y0098966D01*
X0115852Y0098165D01*
X0118254Y0098165D01*
X0118254Y0096564D02*
X0118254Y0101368D01*
X0115852Y0101368D01*
X0115051Y0100567D01*
X0120207Y0100567D02*
X0120207Y0098966D01*
X0121008Y0098165D01*
X0123410Y0098165D01*
X0123410Y0096564D02*
X0123410Y0101368D01*
X0121008Y0101368D01*
X0120207Y0100567D01*
X0125364Y0102969D02*
X0128566Y0098165D01*
X0130520Y0098165D02*
X0130520Y0100567D01*
X0131321Y0101368D01*
X0132121Y0100567D01*
X0132121Y0098165D01*
X0133723Y0098165D02*
X0133723Y0101368D01*
X0132922Y0101368D01*
X0132121Y0100567D01*
X0135677Y0100567D02*
X0135677Y0098966D01*
X0136477Y0098165D01*
X0138079Y0098165D01*
X0138879Y0098966D01*
X0138879Y0100567D01*
X0138079Y0101368D01*
X0136477Y0101368D01*
X0135677Y0100567D01*
X0140833Y0101368D02*
X0143235Y0101368D01*
X0144036Y0100567D01*
X0144036Y0098966D01*
X0143235Y0098165D01*
X0140833Y0098165D01*
X0145813Y0098165D02*
X0145813Y0098966D01*
X0146614Y0098966D01*
X0146614Y0098165D01*
X0145813Y0098165D01*
X0148567Y0098966D02*
X0148567Y0100567D01*
X0149368Y0101368D01*
X0151770Y0101368D01*
X0151770Y0102969D02*
X0151770Y0098165D01*
X0149368Y0098165D01*
X0148567Y0098966D01*
X0153724Y0098165D02*
X0153724Y0101368D01*
X0156927Y0101368D02*
X0156927Y0098966D01*
X0156126Y0098165D01*
X0153724Y0098165D01*
X0158880Y0098165D02*
X0158880Y0100567D01*
X0159681Y0101368D01*
X0161282Y0101368D01*
X0162083Y0100567D01*
X0163919Y0101368D02*
X0165521Y0101368D01*
X0164720Y0102169D02*
X0164720Y0098966D01*
X0163919Y0098165D01*
X0162083Y0098165D02*
X0162083Y0102969D01*
X0160423Y0106565D02*
X0161224Y0107366D01*
X0161224Y0108967D01*
X0160423Y0109768D01*
X0158822Y0109768D01*
X0158021Y0108967D01*
X0158021Y0108167D01*
X0161224Y0108167D01*
X0160423Y0106565D02*
X0158822Y0106565D01*
X0155267Y0107366D02*
X0154466Y0106565D01*
X0155267Y0107366D02*
X0155267Y0110569D01*
X0156067Y0109768D02*
X0154466Y0109768D01*
X0152630Y0109768D02*
X0152630Y0106565D01*
X0152630Y0108167D02*
X0151028Y0109768D01*
X0150228Y0109768D01*
X0148333Y0109768D02*
X0147532Y0109768D01*
X0147532Y0106565D01*
X0148333Y0106565D02*
X0146731Y0106565D01*
X0147532Y0111369D02*
X0147532Y0112170D01*
X0147532Y0114965D02*
X0145130Y0114965D01*
X0145130Y0117367D01*
X0145931Y0118168D01*
X0147532Y0118168D01*
X0147532Y0116567D02*
X0145130Y0116567D01*
X0147532Y0116567D02*
X0148333Y0115766D01*
X0147532Y0114965D01*
X0150169Y0114965D02*
X0151770Y0114965D01*
X0150970Y0114965D02*
X0150970Y0119769D01*
X0151770Y0119769D01*
X0153724Y0118168D02*
X0156126Y0118168D01*
X0156927Y0117367D01*
X0156927Y0115766D01*
X0156126Y0114965D01*
X0153724Y0114965D01*
X0158880Y0114965D02*
X0158880Y0117367D01*
X0159681Y0118168D01*
X0162083Y0118168D01*
X0162083Y0114965D01*
X0163919Y0114965D02*
X0165521Y0114965D01*
X0164720Y0114965D02*
X0164720Y0118168D01*
X0165521Y0118168D01*
X0164720Y0119769D02*
X0164720Y0120570D01*
X0165697Y0123365D02*
X0164896Y0124166D01*
X0164896Y0125767D01*
X0165697Y0126568D01*
X0167298Y0126568D01*
X0168099Y0125767D01*
X0168099Y0124166D01*
X0167298Y0123365D01*
X0165697Y0123365D01*
X0162942Y0124166D02*
X0162142Y0124967D01*
X0159740Y0124967D01*
X0159740Y0125767D02*
X0159740Y0123365D01*
X0162142Y0123365D01*
X0162942Y0124166D01*
X0162142Y0126568D02*
X0160540Y0126568D01*
X0159740Y0125767D01*
X0157786Y0124967D02*
X0156185Y0126568D01*
X0155384Y0126568D01*
X0153489Y0125767D02*
X0153489Y0124166D01*
X0152688Y0123365D01*
X0150286Y0123365D01*
X0150286Y0128169D01*
X0150286Y0126568D02*
X0152688Y0126568D01*
X0153489Y0125767D01*
X0157786Y0126568D02*
X0157786Y0123365D01*
X0167474Y0118969D02*
X0168275Y0119769D01*
X0169876Y0119769D01*
X0170677Y0118969D01*
X0170677Y0118168D01*
X0169876Y0117367D01*
X0168275Y0117367D01*
X0167474Y0116567D01*
X0167474Y0115766D01*
X0168275Y0114965D01*
X0169876Y0114965D01*
X0170677Y0115766D01*
X0173490Y0111369D02*
X0175091Y0110569D01*
X0176693Y0108967D01*
X0174291Y0108967D01*
X0173490Y0108167D01*
X0173490Y0107366D01*
X0174291Y0106565D01*
X0175892Y0106565D01*
X0176693Y0107366D01*
X0176693Y0108967D01*
X0178646Y0106565D02*
X0181849Y0106565D01*
X0180248Y0106565D02*
X0180248Y0111369D01*
X0181849Y0109768D01*
X0183803Y0110569D02*
X0183803Y0107366D01*
X0184604Y0106565D01*
X0186205Y0106565D01*
X0187006Y0107366D01*
X0183803Y0110569D01*
X0184604Y0111369D01*
X0186205Y0111369D01*
X0187006Y0110569D01*
X0187006Y0107366D01*
X0188959Y0106565D02*
X0192162Y0106565D01*
X0188959Y0109768D01*
X0188959Y0110569D01*
X0189760Y0111369D01*
X0191361Y0111369D01*
X0192162Y0110569D01*
X0187982Y0114965D02*
X0188783Y0115766D01*
X0188783Y0118969D01*
X0189584Y0118168D02*
X0187982Y0118168D01*
X0186146Y0117367D02*
X0185346Y0118168D01*
X0183744Y0118168D01*
X0182943Y0117367D01*
X0182943Y0114965D01*
X0180990Y0115766D02*
X0180990Y0117367D01*
X0180189Y0118168D01*
X0178588Y0118168D01*
X0177787Y0117367D01*
X0177787Y0116567D01*
X0180990Y0116567D01*
X0180990Y0115766D02*
X0180189Y0114965D01*
X0178588Y0114965D01*
X0186146Y0114965D02*
X0186146Y0119769D01*
X0185522Y0123365D02*
X0187924Y0125767D01*
X0188724Y0124967D02*
X0185522Y0128169D01*
X0183568Y0125767D02*
X0182767Y0126568D01*
X0181166Y0126568D01*
X0180365Y0125767D01*
X0180365Y0124967D01*
X0183568Y0124967D01*
X0183568Y0125767D02*
X0183568Y0124166D01*
X0182767Y0123365D01*
X0181166Y0123365D01*
X0178412Y0124166D02*
X0178412Y0126568D01*
X0178412Y0124166D02*
X0177611Y0123365D01*
X0175209Y0123365D01*
X0175209Y0122565D02*
X0176010Y0121764D01*
X0176810Y0121764D01*
X0175209Y0122565D02*
X0175209Y0126568D01*
X0173255Y0126568D02*
X0170853Y0126568D01*
X0170052Y0125767D01*
X0170052Y0124166D01*
X0170853Y0123365D01*
X0173255Y0123365D01*
X0173255Y0128169D01*
X0188724Y0128169D02*
X0188724Y0123365D01*
X0195834Y0124166D02*
X0196635Y0123365D01*
X0199037Y0123365D01*
X0199037Y0128169D01*
X0196635Y0128169D01*
X0195834Y0127369D01*
X0195834Y0126568D01*
X0196635Y0125767D01*
X0199037Y0125767D01*
X0200991Y0124967D02*
X0200991Y0124166D01*
X0201792Y0123365D01*
X0203393Y0123365D01*
X0204194Y0124166D01*
X0203393Y0125767D02*
X0201792Y0125767D01*
X0200991Y0124967D01*
X0200991Y0127369D02*
X0201792Y0128169D01*
X0203393Y0128169D01*
X0204194Y0127369D01*
X0204194Y0126568D01*
X0203393Y0125767D01*
X0206147Y0124166D02*
X0206147Y0128169D01*
X0209350Y0128169D02*
X0209350Y0124166D01*
X0208549Y0123365D01*
X0206948Y0123365D01*
X0206147Y0124166D01*
X0206147Y0119769D02*
X0209350Y0119769D01*
X0209350Y0114965D01*
X0209350Y0117367D02*
X0207749Y0117367D01*
X0204194Y0117367D02*
X0204194Y0115766D01*
X0203393Y0114965D01*
X0201792Y0114965D01*
X0200991Y0115766D01*
X0200991Y0117367D01*
X0201792Y0118168D01*
X0203393Y0118168D01*
X0204194Y0117367D01*
X0199037Y0116567D02*
X0197436Y0118168D01*
X0196635Y0118168D01*
X0199037Y0118168D02*
X0199037Y0114965D01*
X0200756Y0111369D02*
X0199155Y0109768D01*
X0199155Y0108167D01*
X0200756Y0106565D01*
X0202710Y0106565D02*
X0205112Y0106565D01*
X0205912Y0107366D01*
X0205912Y0108967D01*
X0205112Y0109768D01*
X0202710Y0109768D01*
X0207749Y0111369D02*
X0209350Y0109768D01*
X0209350Y0108167D01*
X0207749Y0106565D01*
X0209350Y0102969D02*
X0209350Y0098165D01*
X0206147Y0098165D02*
X0206147Y0100567D01*
X0206948Y0101368D01*
X0208549Y0101368D01*
X0209350Y0100567D01*
X0204194Y0101368D02*
X0202592Y0101368D01*
X0203393Y0102169D02*
X0203393Y0098966D01*
X0202592Y0098165D01*
X0199955Y0098966D02*
X0199155Y0098165D01*
X0199955Y0098966D02*
X0199955Y0102169D01*
X0200756Y0101368D02*
X0199155Y0101368D01*
X0197318Y0101368D02*
X0194916Y0101368D01*
X0194116Y0100567D01*
X0194116Y0098966D01*
X0194916Y0098165D01*
X0197318Y0098165D01*
X0197318Y0096564D02*
X0197318Y0101368D01*
X0192162Y0100567D02*
X0191361Y0099767D01*
X0189760Y0099767D01*
X0188959Y0098966D01*
X0189760Y0098165D01*
X0192162Y0098165D01*
X0190502Y0094569D02*
X0188901Y0094569D01*
X0188100Y0093769D01*
X0191303Y0090566D01*
X0190502Y0089765D01*
X0188901Y0089765D01*
X0188100Y0090566D01*
X0188100Y0093769D01*
X0190502Y0094569D02*
X0191303Y0093769D01*
X0191303Y0090566D01*
X0193080Y0090566D02*
X0193080Y0089765D01*
X0193881Y0089765D01*
X0193881Y0090566D01*
X0193080Y0090566D01*
X0195834Y0089765D02*
X0199037Y0089765D01*
X0197436Y0089765D02*
X0197436Y0094569D01*
X0199037Y0092968D01*
X0206147Y0092968D02*
X0207749Y0089765D01*
X0209350Y0092968D01*
X0192162Y0100567D02*
X0191361Y0101368D01*
X0188959Y0101368D01*
X0187006Y0101368D02*
X0187006Y0100567D01*
X0186205Y0100567D01*
X0186205Y0101368D01*
X0187006Y0101368D01*
X0187006Y0098966D02*
X0186205Y0098966D01*
X0186205Y0098165D01*
X0187006Y0098165D01*
X0187006Y0098966D01*
X0184427Y0098165D02*
X0181225Y0102969D01*
X0176068Y0102969D02*
X0179271Y0098165D01*
X0174115Y0098966D02*
X0174115Y0100567D01*
X0173314Y0101368D01*
X0170912Y0101368D01*
X0170912Y0097365D01*
X0171713Y0096564D01*
X0172513Y0096564D01*
X0173314Y0098165D02*
X0170912Y0098165D01*
X0168958Y0098165D02*
X0167357Y0098165D01*
X0168158Y0098165D02*
X0168158Y0101368D01*
X0168958Y0101368D01*
X0168158Y0102969D02*
X0168158Y0103770D01*
X0166380Y0106565D02*
X0166380Y0111369D01*
X0163978Y0111369D01*
X0163177Y0110569D01*
X0163177Y0108967D01*
X0163978Y0108167D01*
X0166380Y0108167D01*
X0174115Y0098966D02*
X0173314Y0098165D01*
X0143176Y0114965D02*
X0141575Y0114965D01*
X0142376Y0114965D02*
X0142376Y0118168D01*
X0143176Y0118168D01*
X0142376Y0119769D02*
X0142376Y0120570D01*
X0143176Y0123365D02*
X0143176Y0126568D01*
X0141575Y0128169D01*
X0139973Y0126568D01*
X0139973Y0123365D01*
X0138020Y0124166D02*
X0138020Y0125767D01*
X0137219Y0126568D01*
X0134817Y0126568D01*
X0134817Y0128169D02*
X0134817Y0123365D01*
X0137219Y0123365D01*
X0138020Y0124166D01*
X0139973Y0125767D02*
X0143176Y0125767D01*
X0139739Y0118168D02*
X0139739Y0114965D01*
X0139739Y0116567D02*
X0138137Y0118168D01*
X0137337Y0118168D01*
X0130285Y0118969D02*
X0130285Y0115766D01*
X0129485Y0114965D01*
X0127883Y0114965D01*
X0127083Y0115766D01*
X0127083Y0118969D01*
X0127883Y0119769D01*
X0129485Y0119769D01*
X0130285Y0118969D01*
X0128684Y0116567D02*
X0127083Y0114965D01*
X0125129Y0114965D02*
X0121926Y0114965D01*
X0121750Y0112170D02*
X0121750Y0111369D01*
X0121750Y0109768D02*
X0121750Y0106565D01*
X0122551Y0106565D02*
X0120949Y0106565D01*
X0119113Y0106565D02*
X0119113Y0109768D01*
X0116711Y0109768D01*
X0115910Y0108967D01*
X0115910Y0106565D01*
X0113957Y0107366D02*
X0113957Y0108967D01*
X0113156Y0109768D01*
X0111555Y0109768D01*
X0110754Y0108967D01*
X0110754Y0108167D01*
X0113957Y0108167D01*
X0113957Y0107366D02*
X0113156Y0106565D01*
X0111555Y0106565D01*
X0108800Y0106565D02*
X0108800Y0109768D01*
X0106398Y0109768D01*
X0105598Y0108967D01*
X0105598Y0106565D01*
X0121750Y0109768D02*
X0122551Y0109768D01*
X0125188Y0111369D02*
X0125188Y0106565D01*
X0125988Y0106565D02*
X0124387Y0106565D01*
X0127824Y0106565D02*
X0129426Y0106565D01*
X0128625Y0106565D02*
X0128625Y0111369D01*
X0129426Y0111369D01*
X0131380Y0108967D02*
X0131380Y0108167D01*
X0134582Y0108167D01*
X0134582Y0108967D02*
X0133782Y0109768D01*
X0132180Y0109768D01*
X0131380Y0108967D01*
X0132180Y0106565D02*
X0133782Y0106565D01*
X0134582Y0107366D01*
X0134582Y0108967D01*
X0136536Y0108967D02*
X0136536Y0110569D01*
X0137337Y0111369D01*
X0139739Y0111369D01*
X0139739Y0106565D01*
X0139739Y0108167D02*
X0137337Y0108167D01*
X0136536Y0108967D01*
X0125988Y0111369D02*
X0125188Y0111369D01*
X0125129Y0114965D02*
X0125129Y0119769D01*
X0127707Y0121764D02*
X0127707Y0126568D01*
X0125305Y0126568D01*
X0124504Y0125767D01*
X0124504Y0124166D01*
X0125305Y0123365D01*
X0127707Y0123365D01*
X0129661Y0123365D02*
X0129661Y0125767D01*
X0130461Y0126568D01*
X0132063Y0126568D01*
X0132063Y0124967D02*
X0129661Y0124967D01*
X0129661Y0123365D02*
X0132063Y0123365D01*
X0132863Y0124166D01*
X0132063Y0124967D01*
X0122551Y0126568D02*
X0120949Y0126568D01*
X0121750Y0127369D02*
X0121750Y0124166D01*
X0120949Y0123365D01*
X0119113Y0124166D02*
X0119113Y0125767D01*
X0118312Y0126568D01*
X0116711Y0126568D01*
X0115910Y0125767D01*
X0115910Y0124967D01*
X0119113Y0124967D01*
X0119113Y0124166D02*
X0118312Y0123365D01*
X0116711Y0123365D01*
X0113957Y0123365D02*
X0113957Y0126568D01*
X0113957Y0124967D02*
X0112355Y0126568D01*
X0111555Y0126568D01*
X0074600Y0100567D02*
X0073800Y0099767D01*
X0073800Y0098966D01*
X0195834Y0124166D02*
X0195834Y0124967D01*
X0196635Y0125767D01*
M02*
